<svg xmlns="http://www.w3.org/2000/svg" viewBox="0 0 960 320" fill="none">
  <rect width="960" height="320" rx="28" fill="#fff8ef"/>
  <rect x="60" y="90" width="840" height="8" rx="4" fill="#d9cab5"/>
  <g font-family="IBM Plex Mono, monospace" font-size="18" fill="#5e5348">
    <text x="60" y="54">updates</text>
    <text x="60" y="275">queries at midpoint 4</text>
  </g>
  <g font-family="IBM Plex Mono, monospace" font-size="16" text-anchor="middle">
    <circle cx="140" cy="94" r="18" fill="#d8e7ec"/><text x="140" y="99" fill="#0d5c6e">1</text>
    <circle cx="240" cy="94" r="18" fill="#d8e7ec"/><text x="240" y="99" fill="#0d5c6e">2</text>
    <circle cx="340" cy="94" r="18" fill="#d8e7ec"/><text x="340" y="99" fill="#0d5c6e">3</text>
    <circle cx="440" cy="94" r="22" fill="#f2cfb5"/><text x="440" y="99" fill="#913914">4</text>
    <circle cx="540" cy="94" r="18" fill="#d8e7ec"/><text x="540" y="99" fill="#0d5c6e">5</text>
    <circle cx="640" cy="94" r="18" fill="#d8e7ec"/><text x="640" y="99" fill="#0d5c6e">6</text>
    <circle cx="740" cy="94" r="18" fill="#d8e7ec"/><text x="740" y="99" fill="#0d5c6e">7</text>
    <circle cx="840" cy="94" r="18" fill="#d8e7ec"/><text x="840" y="99" fill="#0d5c6e">8</text>
  </g>
  <path d="M440 116V235" stroke="#913914" stroke-width="3" stroke-dasharray="8 8"/>
  <g font-family="Space Grotesk, sans-serif" font-size="18">
    <rect x="120" y="170" width="230" height="54" rx="16" fill="#e6f0d2" stroke="#8aa555"/>
    <text x="235" y="202" text-anchor="middle" fill="#3f5221">already true -&gt; go left</text>
    <rect x="520" y="170" width="280" height="54" rx="16" fill="#f7e0d1" stroke="#c25f35"/>
    <text x="660" y="202" text-anchor="middle" fill="#7a3014">still false -&gt; go right and subtract gain</text>
  </g>
</svg>
